<svg width="25" height="15" viewBox="0 0 25 15" xmlns="http://www.w3.org/2000/svg"><path d="M19.979 5.005c-.715 0-1.393.148-2.01.413-.145-.477-.243-.795-.25-.815V4.6l-.602-1.864c-.02-.063-.063-.113-.117-.145l-.242-.753h.91c.06.072.15.118.25.118.177 0 .32-.14.32-.315 0-.105-.052-.198-.132-.255C18.032.6 17.6.183 16.794.12c-.056-.067-.138-.11-.232-.11h-1.34c-.165 0-.3.133-.3.296 0 .164.135.297.3.297h1.34c.085 0 .16-.035.216-.09.595.05.872.314.927.892-.013.01-.025.024-.036.037H16.48c-.064 0-.124.03-.162.08-.038.052-.048.118-.03.178l.276.85H8.978L8.514.91C9.328.695 9.98.256 9.98.256c.208-.14.175-.255-.073-.255h-3.1c-.25 0-.42.207-.378.46 0 0 .092.57 1.245.57.15 0 .298-.013.445-.036L8.603 2.7c-.018.04-.028.08-.027.123l-1.39 2.665c-.657-.31-1.39-.483-2.164-.483C2.252 5.005 0 7.22 0 9.945c0 2.723 2.253 4.938 5.022 4.938 2.35 0 4.328-1.596 4.872-3.745l.822.177c.058.216.257.376.495.376.285 0 .515-.226.515-.505 0-.045-.006-.09-.018-.13l5.65-5.876c.046.126.1.28.16.45l.004.01c-1.528.847-2.563 2.46-2.563 4.304 0 2.724 2.253 4.94 5.022 4.94 2.767 0 5.02-2.216 5.02-4.94 0-2.723-2.253-4.94-5.021-4.94h-.002zM5.02 14.225c-2.4 0-4.352-1.92-4.352-4.28 0-2.36 1.952-4.28 4.352-4.28.664 0 1.293.147 1.857.41L4.892 9.877c-.005.01-.01.022-.013.035-.017.077.033.154.112.17l4.247.914c-.48 1.853-2.188 3.227-4.218 3.227zm4.3-3.626l-4.078-.76L7.22 6.252c1.287.744 2.154 2.12 2.154 3.692 0 .223-.018.442-.052.655zM7.538 5.67L8.75 3.47l2.086 7.372-.03.033-.825-.153c.04-.254.063-.513.063-.778 0-1.822-1.01-3.415-2.505-4.272zm3.805 4.993L9.197 3.08h7.47l.495 1.534-5.82 6.05zm8.636 3.56c-2.4 0-4.353-1.92-4.353-4.28 0-1.563.856-2.932 2.13-3.68.032.084.064.168.1.254l.2.495.222.508c.072.17.155.337.232.503.077.166.163.326.24.482.084.154.167.302.248.442.084.138.16.27.243.386.077.12.16.223.23.316l.105.127c.034.037.07.07.1.103.06.062.116.108.158.138.02.017.043.03.055.037.015.01.032.017.03.016.072.032.157 0 .19-.07.032-.072 0-.155-.072-.187-.002 0 .004.002 0 0-.006-.006-.014-.01-.027-.02-.026-.022-.068-.06-.118-.115-.025-.027-.053-.057-.082-.093l-.09-.118c-.063-.09-.134-.19-.203-.305-.072-.113-.14-.243-.216-.38-.07-.136-.145-.283-.22-.436-.068-.157-.146-.314-.214-.48-.068-.165-.142-.33-.207-.502l-.197-.507-.177-.496c-.04-.107-.074-.212-.107-.314.548-.247 1.157-.385 1.8-.385 2.4 0 4.35 1.92 4.35 4.28 0 2.36-1.952 4.28-4.35 4.28h-.002z" id="Shape"/></svg>