<svg width="65" height="40" viewBox="0 0 65 40" xmlns="http://www.w3.org/2000/svg"><path d="M51.604 13.275c-1.836 0-3.582.378-5.17 1.057l-.442-1.45.168-.055c.044-.015.068-.062.055-.106l-.042-.127c-.014-.042-.06-.067-.104-.054l-.163.053-.656-2.146c-.29-.955-.585-1.91-.882-2.864l.106-.036c.045-.013.068-.06.056-.103l-.042-.13c-.014-.043-.06-.066-.104-.055l-.106.033-.045.015-.474-1.338h3.497c.083 0 .184.003.296.012 1.345.102 2.34.153 3.227.153 1.026 0 1.904-.07 3-.213.275-.036.468-.286.433-.56-.036-.274-.296-.47-.56-.43-1.986.258-3.17.268-6.022.053-.14-.01-.268-.015-.372-.015h-3.83c-.12 0-.225.048-.31.118l-.803.252.82 2.32-.096.03c-.043.014-.067.06-.054.104l.042.128c.013.043.06.07.104.055l.105-.034.136.415h-20.17l-.167-.567-.11-.377-.056.017-1.057-3.653c-.03-.113-.098-.34-.646-.593l.12-.007c.21-.014.498-.13.654-.272l.752-.678c.225.006.39.018.432.042.146.08 1.038.102 1.37.102.33 0 .85.022.933.022.083 0 .33-.21-.062-.457-.395-.25-.975-.746-2.695-.746h-5.1c-.25 0-.593-.04-.87-.123-.325-.1-1.493-.168-1.68-.084-.188.084-.153.282.165.58.215.2.59.56.803.664.163.082.744.316 1.37.467l.332.365c.14.155.408.27.623.27h.03l1.042-.056c-.008.05-.012.1-.012.15 0 .44.228.813.84.828.205.003.513-.06.735-.16.003.003.006.004.01.006l1.036 3.59-.104.03.11.378.366 1.243-.014.024-.297.538-.595 1.076-1.19 2.152-.937 1.674c-1.836-.973-3.927-1.53-6.15-1.53C5.918 13.275.03 19.165.03 26.433c0 7.266 5.89 13.154 13.156 13.154 5.604 0 10.378-3.51 12.273-8.445l1.27.364c.224.142.462.266.72.358 1.893.68 3.977-.304 4.655-2.194.42-1.172.2-2.416-.475-3.355l13.03-14.095.23.7-.164.05c-.044.014-.066.062-.054.106l.04.128c.013.043.063.067.105.052l.168-.052.526 1.574c-4.197 2.198-7.065 6.588-7.065 11.656 0 7.266 5.89 13.154 13.156 13.154 7.27 0 13.158-5.89 13.158-13.154.003-7.267-5.886-13.157-13.154-13.157zM20.63 2.96c-.126-.21-.333-.347-.567-.347-.256 0-.48.164-.6.407l-1.135.058c-.145.01-.357-.08-.455-.188l-.104-.112c.203.03.402.052.587.048.905-.013 1.264-.455 1.596-.518.332-.062.975-.062.975-.062.235 0 .87-.02 1.396-.022l-.55.495c-.113.103-.347.2-.5.206l-.645.033zm.186 10.473l1.195-2.15.6-1.073.008-.016 4.368 14.83-.72.007c-.45-4.222-2.9-7.836-6.38-9.904l.93-1.693zm4.135 11.61l-10.415.097 1.596-3.056 1.158-2.172 1.17-2.162c.266-.496.536-.988.806-1.48 3.08 1.844 5.25 5.04 5.687 8.772zm1.365 1.912c.1.017.2.06.286.16l.706.818c.003.004.004.01.007.012l-1.04-.157c.028-.273.032-.554.042-.833zm.57-.19c-.318-.163-.363-.496-.096-.737 0 0 .16-.135.408-.28l.41 1.387-.723-.37zm-.58-1.062c-.008-.14-.01-.283-.02-.423l.63-.006c-.218.122-.42.265-.61.43zm-1.265.73c0 .392-.02.78-.06 1.162l-10.47-1.577c-.045-.156-.097-.332-.21-.43l.103-.197 10.58-.098c.036.376.057.756.057 1.14zm-10.724.745l10.48 1.66c-.122.59-.3 1.157-.505 1.71l-10.43-2.976c.18-.1.34-.227.456-.394zM26.08 29.04l.896.143-.445.445c-.196.197-.437.197-.603.037.05-.21.112-.413.154-.624zm3.117-.32c-.11.302-.443.462-.748.353-.305-.108-.462-.445-.353-.75.107-.302.442-.46.746-.35.304.11.463.443.354.746zm.454-2.1l.066-.405c.055-.332.327-.47.62-.335l-.685.74zm-.357-.565l-.56.924c-.01.015-.025.024-.036.04l-.48-1.627c.437-.058.77-.005.77-.005.355.057.492.36.306.667zM13.185 38.288c-6.547 0-11.854-5.31-11.854-11.855 0-6.548 5.31-11.854 11.855-11.854 1.99 0 3.863.495 5.51 1.362-.275.493-.55.986-.83 1.477l-1.217 2.138-1.227 2.13c-.65 1.117-1.298 2.234-1.96 3.345l-.197-.002h-.067c-.756 0-1.368.61-1.368 1.366 0 .674.488 1.233 1.13 1.348l.524-.01c.005 0 .01-.004.013-.005l10.71 3.056c-1.736 4.39-6.01 7.502-11.02 7.502zm12.507-7.785c.146.21.31.41.498.588l-.646-.183c.05-.135.103-.267.148-.404zm3.098 1s-.558.06-1.16-.158c-.605-.216-.996-.618-.996-.618-.25-.256-.187-.58.145-.722l.996-.42c.025-.012.053-.01.08-.017.213.17.478.276.77.29.014.02.033.034.045.056l.475.936c.162.32 0 .613-.355.652zm2.835-2.223s-.113.546-.508 1.056c-.392.506-.894.754-.894.754-.32.158-.61-.002-.642-.36l-.092-1.077c-.003-.03.01-.06.01-.09.203-.16.357-.362.442-.61.046-.018.088-.043.138-.05l1.035-.163c.356-.054.584.188.512.54zm.053-1.49c.053.354-.19.58-.54.498l-1.055-.246c-.014-.003-.024-.013-.037-.017l1.2-1.3c.35.525.432 1.065.432 1.065zm-.947-2.338c-.252-.174-.52-.33-.824-.438-.613-.22-1.242-.25-1.842-.146L23.568 9.6h20.214l.396 1.187.028.083L30.73 25.452zm20.874 12.836c-6.547 0-11.854-5.31-11.854-11.855 0-4.492 2.498-8.398 6.18-10.41l.037.11.896 2.674.45 1.337.112.334.032.095.03.083.066.172c.092.228.186.448.286.668.405.876.883 1.71 1.425 2.5.27.392.555.782.862 1.15.156.183.316.364.488.54.168.174.35.343.555.498.107.1.274.09.373-.017.098-.107.09-.275-.018-.373-.01-.01-.023-.005-.035-.012l.004-.004c-.322-.286-.615-.646-.887-1.01-.272-.37-.53-.752-.77-1.145-.478-.79-.91-1.607-1.264-2.45-.087-.21-.17-.424-.245-.638l-.055-.158-.027-.084-.02-.072-.105-.336-.408-1.348-.818-2.698-.075-.247c1.463-.646 3.08-1.012 4.783-1.012 6.55 0 11.855 5.307 11.855 11.854 0 6.547-5.306 11.856-11.854 11.856z" id="Shape"/></svg>