<svg width="65px" height="40px" viewBox="0 0 65 40" version="1.1" xmlns="http://www.w3.org/2000/svg" xmlns:xlink="http://www.w3.org/1999/xlink" xmlns:sketch="http://www.bohemiancoding.com/sketch/ns">
            <path d="M51.604,13.275 C49.768,13.275 48.022,13.653 46.435,14.332 L45.992,12.881 L46.16,12.827 C46.204,12.812 46.228,12.765 46.215,12.721 L46.173,12.593 C46.159,12.551 46.112,12.526 46.069,12.539 L45.907,12.593 L45.251,10.447 C44.959,9.492 44.665,8.536 44.368,7.583 L44.474,7.547 C44.519,7.534 44.542,7.486 44.53,7.444 L44.488,7.313 C44.474,7.271 44.427,7.248 44.384,7.259 L44.278,7.293 L44.233,7.308 L43.759,5.97 L47.257,5.97 C47.34,5.97 47.441,5.973 47.553,5.982 C48.898,6.084 49.894,6.135 50.78,6.135 C51.806,6.135 52.684,6.065 53.781,5.922 C54.055,5.886 54.248,5.636 54.213,5.362 C54.177,5.088 53.917,4.891 53.652,4.931 C51.667,5.19 50.484,5.2 47.631,4.985 C47.49,4.974 47.362,4.97 47.258,4.97 L43.429,4.97 C43.309,4.97 43.203,5.018 43.117,5.088 L42.315,5.34 L43.136,7.659 L43.039,7.69 C42.997,7.704 42.973,7.75 42.986,7.794 L43.028,7.922 C43.041,7.965 43.089,7.991 43.132,7.977 L43.237,7.943 C43.283,8.082 43.327,8.22 43.373,8.358 L23.203,8.358 L23.036,7.791 L22.926,7.413 L22.87,7.43 L21.813,3.777 C21.784,3.664 21.715,3.438 21.167,3.184 L21.286,3.177 C21.497,3.163 21.785,3.046 21.941,2.905 L22.692,2.227 C22.917,2.233 23.083,2.245 23.124,2.269 C23.27,2.35 24.162,2.372 24.494,2.372 C24.825,2.372 25.344,2.394 25.427,2.394 C25.51,2.394 25.758,2.185 25.365,1.937 C24.97,1.687 24.39,1.191 22.67,1.191 L17.569,1.191 C17.32,1.191 16.977,1.15 16.699,1.067 C16.375,0.968 15.207,0.899 15.02,0.983 C14.832,1.067 14.867,1.265 15.185,1.563 C15.4,1.763 15.776,2.122 15.988,2.227 C16.151,2.309 16.732,2.543 17.359,2.694 L17.69,3.059 C17.831,3.215 18.098,3.33 18.313,3.33 L18.342,3.33 L19.385,3.274 C19.377,3.324 19.373,3.374 19.373,3.425 C19.373,3.865 19.601,4.237 20.212,4.252 C20.418,4.255 20.726,4.191 20.948,4.093 C20.951,4.095 20.954,4.096 20.957,4.098 L21.994,7.689 L21.89,7.719 L22.001,8.096 L22.366,9.339 C22.362,9.348 22.357,9.357 22.352,9.364 L22.055,9.902 L21.46,10.978 L20.271,13.13 L19.333,14.804 C17.497,13.831 15.406,13.275 13.184,13.275 C5.917,13.275 0.028,19.165 0.028,26.432 C0.028,33.698 5.918,39.586 13.184,39.586 C18.788,39.586 23.562,36.077 25.457,31.141 L26.728,31.504 C26.951,31.646 27.189,31.77 27.448,31.862 C29.34,32.542 31.424,31.558 32.102,29.668 C32.523,28.496 32.303,27.252 31.627,26.313 L44.656,12.218 L44.888,12.917 L44.723,12.969 C44.679,12.982 44.657,13.03 44.669,13.074 L44.711,13.202 C44.723,13.245 44.773,13.269 44.815,13.254 L44.983,13.202 L45.509,14.776 C41.313,16.974 38.445,21.364 38.445,26.432 C38.445,33.698 44.336,39.586 51.601,39.586 C58.87,39.586 64.758,33.697 64.758,26.432 C64.761,19.165 58.872,13.275 51.604,13.275 L51.604,13.275 Z M20.629,2.959 C20.504,2.75 20.297,2.613 20.063,2.613 C19.807,2.613 19.584,2.777 19.464,3.02 L18.328,3.078 C18.183,3.087 17.971,2.998 17.873,2.89 L17.769,2.778 C17.973,2.809 18.172,2.83 18.357,2.826 C19.262,2.813 19.621,2.371 19.953,2.308 C20.285,2.246 20.928,2.246 20.928,2.246 C21.163,2.246 21.797,2.225 22.324,2.224 L21.775,2.719 C21.661,2.823 21.427,2.92 21.274,2.926 L20.629,2.959 L20.629,2.959 Z M20.816,13.433 L22.011,11.284 L22.609,10.21 L22.618,10.194 L26.986,25.024 L26.265,25.031 C25.817,20.808 23.367,17.194 19.887,15.126 L20.816,13.433 L20.816,13.433 Z M24.951,25.042 L14.535,25.14 L16.131,22.084 L17.288,19.912 L18.457,17.75 C18.724,17.254 18.994,16.762 19.264,16.269 C22.343,18.114 24.515,21.309 24.951,25.042 L24.951,25.042 Z M26.315,26.955 C26.415,26.972 26.514,27.016 26.601,27.116 L27.306,27.933 C27.309,27.937 27.31,27.942 27.313,27.945 L26.272,27.788 C26.301,27.515 26.305,27.234 26.315,26.955 L26.315,26.955 Z M26.885,26.764 C26.567,26.602 26.522,26.269 26.789,26.028 C26.789,26.028 26.949,25.893 27.198,25.747 L27.607,27.135 L26.885,26.764 L26.885,26.764 Z M26.305,25.703 C26.297,25.562 26.296,25.42 26.284,25.28 L26.916,25.274 C26.697,25.396 26.494,25.539 26.305,25.703 L26.305,25.703 Z M25.04,26.433 C25.04,26.825 25.019,27.212 24.981,27.595 L14.51,26.018 C14.465,25.862 14.413,25.686 14.3,25.588 L14.403,25.391 L24.982,25.292 C25.019,25.668 25.04,26.048 25.04,26.433 L25.04,26.433 Z M14.316,27.178 L24.795,28.837 C24.674,29.427 24.496,29.995 24.291,30.549 L13.861,27.572 C14.039,27.471 14.2,27.345 14.316,27.178 L14.316,27.178 Z M26.081,29.041 L26.976,29.183 L26.531,29.628 C26.334,29.825 26.093,29.825 25.927,29.665 C25.978,29.456 26.039,29.252 26.081,29.041 L26.081,29.041 Z M29.197,28.719 C29.088,29.022 28.754,29.182 28.449,29.073 C28.145,28.965 27.988,28.628 28.097,28.324 C28.204,28.021 28.539,27.864 28.843,27.972 C29.147,28.082 29.306,28.416 29.197,28.719 L29.197,28.719 Z M29.651,26.621 L29.716,26.215 C29.771,25.883 30.043,25.744 30.337,25.88 L29.651,26.621 L29.651,26.621 Z M29.293,26.055 L28.733,26.979 C28.723,26.995 28.708,27.004 28.697,27.019 L28.218,25.393 C28.654,25.335 28.987,25.388 28.987,25.388 C29.342,25.445 29.479,25.747 29.293,26.055 L29.293,26.055 Z M13.185,38.288 C6.638,38.288 1.331,32.979 1.331,26.433 C1.331,19.885 6.639,14.579 13.185,14.579 C15.176,14.579 17.048,15.075 18.696,15.942 C18.42,16.435 18.144,16.928 17.864,17.419 L16.648,19.558 L15.421,21.689 C14.771,22.805 14.122,23.922 13.461,25.033 L13.263,25.031 C13.242,25.031 13.219,25.029 13.196,25.029 C12.44,25.029 11.828,25.641 11.828,26.396 C11.828,27.07 12.316,27.629 12.958,27.744 L13.482,27.734 C13.487,27.733 13.491,27.73 13.495,27.729 L24.206,30.786 C22.469,35.176 18.194,38.288 13.185,38.288 L13.185,38.288 Z M25.692,30.503 C25.838,30.714 26.001,30.913 26.19,31.091 L25.544,30.907 C25.594,30.772 25.647,30.64 25.692,30.503 L25.692,30.503 Z M28.79,31.502 C28.79,31.502 28.232,31.563 27.629,31.345 C27.025,31.129 26.634,30.727 26.634,30.727 C26.383,30.471 26.447,30.147 26.779,30.005 L27.776,29.584 C27.801,29.573 27.829,29.576 27.855,29.568 C28.069,29.737 28.334,29.844 28.626,29.857 C28.64,29.878 28.659,29.892 28.671,29.914 L29.145,30.85 C29.307,31.17 29.146,31.463 28.79,31.502 L28.79,31.502 Z M31.625,29.28 C31.625,29.28 31.512,29.826 31.117,30.336 C30.725,30.842 30.223,31.09 30.223,31.09 C29.902,31.248 29.613,31.088 29.581,30.731 L29.488,29.653 C29.485,29.622 29.497,29.592 29.499,29.562 C29.701,29.404 29.855,29.201 29.94,28.953 C29.986,28.935 30.028,28.91 30.078,28.903 L31.113,28.74 C31.469,28.686 31.697,28.928 31.625,29.28 L31.625,29.28 Z M31.678,27.79 C31.731,28.144 31.487,28.37 31.137,28.288 L30.083,28.042 C30.069,28.039 30.059,28.029 30.046,28.025 L31.247,26.726 C31.596,27.25 31.678,27.79 31.678,27.79 L31.678,27.79 Z M30.731,25.452 C30.478,25.278 30.209,25.123 29.906,25.014 C29.293,24.794 28.664,24.764 28.064,24.868 L23.568,9.6 L43.782,9.6 C43.915,9.996 44.047,10.392 44.178,10.787 L44.206,10.87 L30.731,25.452 L30.731,25.452 Z M51.604,38.288 C45.057,38.288 39.75,32.979 39.75,26.433 C39.75,21.941 42.248,18.035 45.93,16.024 L45.967,16.134 L46.863,18.807 L47.313,20.144 L47.425,20.478 L47.457,20.573 L47.488,20.656 L47.553,20.828 C47.645,21.056 47.739,21.276 47.839,21.496 C48.245,22.372 48.723,23.205 49.265,23.996 C49.535,24.388 49.82,24.778 50.127,25.146 C50.283,25.329 50.443,25.51 50.615,25.686 C50.783,25.86 50.966,26.029 51.17,26.184 C51.277,26.283 51.444,26.275 51.543,26.167 C51.641,26.06 51.633,25.892 51.525,25.794 C51.515,25.785 51.502,25.789 51.49,25.782 L51.494,25.778 C51.172,25.492 50.879,25.132 50.607,24.767 C50.335,24.399 50.077,24.016 49.838,23.623 C49.359,22.834 48.926,22.016 48.573,21.174 C48.486,20.962 48.402,20.749 48.328,20.535 L48.273,20.377 L48.246,20.293 L48.225,20.221 L48.121,19.884 L47.712,18.536 L46.894,15.838 L46.819,15.591 C48.283,14.944 49.899,14.578 51.603,14.578 C58.152,14.578 63.458,19.885 63.458,26.432 C63.459,32.979 58.152,38.288 51.604,38.288 L51.604,38.288 Z" id="Shape" sketch:type="MSShapeGroup"></path>
</svg>