<?xml version="1.0" encoding="UTF-8" standalone="no"?>
<svg width="25px" height="15px" viewBox="0 0 25 15" version="1.1" xmlns="http://www.w3.org/2000/svg" xmlns:xlink="http://www.w3.org/1999/xlink" xmlns:sketch="http://www.bohemiancoding.com/sketch/ns">

            <path d="M19.9785,5.00508197 C19.265,5.00508197 18.5865,5.15311475 17.97125,5.41819672 C17.825,4.94114754 17.727,4.62270492 17.721,4.60327869 L17.721,4.60303279 L17.72075,4.60180328 L17.7205,4.60131148 C17.7205,4.60131148 17.7205,4.60106557 17.72025,4.60081967 L17.118,2.73565574 C17.09775,2.67319672 17.055,2.62303279 17.00075,2.59057377 L16.7575,1.83737705 L17.66925,1.83737705 C17.728,1.90893443 17.817,1.95540984 17.91775,1.95540984 C18.095,1.95540984 18.23875,1.81401639 18.23875,1.63967213 C18.23875,1.53467213 18.186,1.44221311 18.10575,1.38467213 C18.03175,0.600245902 17.60025,0.183442623 16.794,0.11852459 C16.7385,0.0526229508 16.65575,0.00983606557 16.562,0.00983606557 L15.2235,0.00983606557 C15.057,0.00983606557 14.922,0.142622951 14.922,0.306393443 C14.922,0.470163934 15.057,0.60295082 15.2235,0.60295082 L16.562,0.60295082 C16.64675,0.60295082 16.72325,0.568278689 16.77775,0.513196721 C17.37275,0.561639344 17.65025,0.827459016 17.70525,1.40459016 C17.69225,1.41614754 17.68025,1.42868852 17.669,1.44221311 L16.4825,1.44221311 C16.41825,1.44221311 16.358,1.47221311 16.32025,1.52311475 C16.2825,1.57401639 16.27175,1.63967213 16.291,1.69967213 L16.56625,2.55147541 L8.978,2.55147541 L8.514,0.911065574 C9.328,0.693688525 9.98,0.254754098 9.98,0.254754098 C10.188,0.114590164 10.15525,0 9.907,0 L6.8055,0 C6.55725,0 6.38825,0.207295082 6.4295,0.460819672 C6.4295,0.460819672 6.52225,1.03032787 7.675,1.03032787 C7.82425,1.03032787 7.9735,1.01704918 8.12025,0.99442623 L8.603,2.70098361 C8.5845,2.73909836 8.575,2.78040984 8.57625,2.82270492 L7.185,5.48754098 C6.5295,5.17844262 5.79575,5.00508197 5.02175,5.00508197 C2.25275,5.00508197 0,7.22065574 0,9.9442623 C0,12.6678689 2.25275,14.8834426 5.02175,14.8834426 C7.372,14.8834426 9.34975,13.2865574 9.894,11.1381148 L10.7155,11.314918 C10.77375,11.5310656 10.97325,11.6906557 11.2115,11.6906557 C11.49525,11.6906557 11.72525,11.4644262 11.72525,11.1853279 C11.72525,11.1395902 11.71875,11.0958197 11.707,11.0537705 L17.3575,5.17868852 C17.40275,5.30631148 17.4565,5.45852459 17.5175,5.63040984 C17.5185,5.63336066 17.51975,5.63655738 17.521,5.6395082 C15.99225,6.48713115 14.957,8.09852459 14.957,9.9442623 C14.957,12.6678689 17.20975,14.8834426 19.97875,14.8834426 C22.74725,14.8834426 25,12.6678689 25,9.9442623 C25,7.22065574 22.74725,5.00508197 19.9785,5.00508197 L19.9785,5.00508197 Z M5.02175,14.2244262 C2.62225,14.2244262 0.67,12.3041803 0.67,9.9442623 C0.67,7.58409836 2.62225,5.66409836 5.02175,5.66409836 C5.68575,5.66409836 6.315,5.81163934 6.87875,6.0742623 L4.89325,9.87762295 C4.88775,9.88819672 4.88325,9.9004918 4.8805,9.91278689 C4.86325,9.9904918 4.91325,10.0672131 4.99225,10.0841803 L4.99275,10.0841803 L9.2395,10.997459 C8.761,12.8498361 7.05175,14.2244262 5.02175,14.2244262 L5.02175,14.2244262 Z M9.32225,10.5993443 L5.244,9.8404918 L7.219,6.25204918 C8.5065,6.99614754 9.3735,8.37221311 9.3735,9.9442623 C9.37325,10.1668033 9.35575,10.3856557 9.32225,10.5993443 L9.32225,10.5993443 Z M7.53775,5.67245902 L8.75075,3.46893443 L10.836,10.8415574 C10.82575,10.852377 10.81575,10.8636885 10.8065,10.8754918 L9.9805,10.7218033 C10.0215,10.4682787 10.04325,10.2088525 10.04325,9.9442623 C10.04325,8.12213115 9.03425,6.52868852 7.53775,5.67245902 L7.53775,5.67245902 Z M11.34275,10.6654918 L9.1965,3.07868852 L16.66625,3.07868852 L17.162,4.61434426 L11.34275,10.6654918 L11.34275,10.6654918 Z M19.9785,14.2244262 C17.57875,14.2244262 15.627,12.3041803 15.627,9.9442623 C15.627,8.38180328 16.48275,7.01311475 17.75725,6.26557377 C17.78875,6.34868852 17.82125,6.43327869 17.85675,6.51860656 C17.922,6.67967213 17.98925,6.84590164 18.05775,7.01508197 C18.1305,7.18254098 18.2045,7.35295082 18.2785,7.52311475 C18.35175,7.69327869 18.435,7.8604918 18.51175,8.02622951 C18.58875,8.19221311 18.6755,8.35155738 18.7535,8.50770492 C18.83625,8.66213115 18.91875,8.81040984 18.9995,8.94983607 C19.084,9.08778689 19.161,9.21934426 19.243,9.33590164 C19.32,9.45467213 19.4015,9.55893443 19.47175,9.65188525 C19.50975,9.69713115 19.5455,9.73918033 19.5785,9.77852459 C19.61225,9.81737705 19.64725,9.85131148 19.677,9.88278689 C19.739,9.9445082 19.7935,9.9907377 19.83625,10.0214754 C19.8555,10.0367213 19.8785,10.0495082 19.8905,10.0571311 C19.9055,10.0662295 19.922,10.0736066 19.9205,10.0728689 C19.9925,10.1045902 20.07725,10.0728689 20.1095,10.0020492 C20.14175,9.93122951 20.1095,9.84811475 20.0375,9.81614754 C20.036,9.81516393 20.042,9.81811475 20.038,9.81540984 C20.0315,9.81 20.0245,9.80729508 20.0105,9.7947541 C19.98375,9.77360656 19.94225,9.7357377 19.89175,9.68139344 C19.86725,9.65262295 19.83875,9.62336066 19.81025,9.58721311 C19.782,9.55057377 19.7515,9.51098361 19.71875,9.46893443 C19.6575,9.37967213 19.586,9.28106557 19.5175,9.1645082 C19.445,9.05188525 19.37625,8.92155738 19.301,8.78631148 C19.22875,8.64860656 19.15525,8.50204918 19.08125,8.34909836 C19.01175,8.19344262 18.93425,8.03606557 18.86575,7.87032787 C18.798,7.70459016 18.7235,7.53885246 18.6585,7.36844262 C18.59325,7.19827869 18.528,7.02836066 18.4635,6.86090164 C18.40325,6.69172131 18.34375,6.5252459 18.2865,6.36418033 C18.24725,6.25721311 18.2125,6.15196721 18.17875,6.04967213 C18.72775,5.80327869 19.33725,5.66459016 19.97925,5.66459016 C22.37875,5.66459016 24.3305,7.58459016 24.3305,9.9447541 C24.32975,12.3044262 22.378,14.2244262 19.9785,14.2244262 L19.9785,14.2244262 Z" id="Shape" sketch:type="MSShapeGroup"></path>

</svg>